<svg width="18" height="19" viewBox="0 0 18 19" fill="none" xmlns="http://www.w3.org/2000/svg">
<path d="M15.2498 3.2498C14.6971 3.25145 14.1605 3.43642 13.7241 3.77572C13.2878 4.11503 12.9763 4.5895 12.8386 5.1248H10.2061C10.0895 4.19679 9.71489 3.32011 9.12478 2.59446C8.53468 1.86881 7.75278 1.32332 6.86802 1.02004C5.98326 0.71675 5.03114 0.667837 4.11996 0.878861C3.20877 1.08989 2.37509 1.55238 1.71373 2.21373C1.05238 2.87509 0.589885 3.70877 0.378861 4.61996C0.167837 5.53114 0.21675 6.48326 0.520036 7.36802C0.823323 8.25278 1.36881 9.03468 2.09446 9.62479C2.82011 10.2149 3.69679 10.5895 4.6248 10.7061V13.3386C4.03564 13.4907 3.52219 13.8524 3.18068 14.3561C2.83917 14.8597 2.69306 15.4705 2.76973 16.0742C2.8464 16.6778 3.14059 17.2328 3.59716 17.635C4.05373 18.0373 4.64132 18.2592 5.2498 18.2592C5.85829 18.2592 6.44588 18.0373 6.90245 17.635C7.35902 17.2328 7.65321 16.6778 7.72988 16.0742C7.80655 15.4705 7.66044 14.8597 7.31893 14.3561C6.97742 13.8524 6.46397 13.4907 5.8748 13.3386V10.7067C6.76328 10.5949 7.60503 10.245 8.31105 9.69418L10.6042 11.9879C10.3746 12.369 10.2522 12.8049 10.2498 13.2498C10.2498 13.7443 10.3964 14.2276 10.6711 14.6387C10.9458 15.0499 11.3363 15.3703 11.7931 15.5595C12.2499 15.7487 12.7526 15.7982 13.2375 15.7018C13.7225 15.6053 14.1679 15.3672 14.5176 15.0176C14.8672 14.6679 15.1053 14.2225 15.2018 13.7375C15.2982 13.2526 15.2487 12.7499 15.0595 12.2931C14.8703 11.8363 14.5499 11.4458 14.1387 11.1711C13.7276 10.8964 13.2443 10.7498 12.7498 10.7498C12.3049 10.7521 11.869 10.8746 11.4879 11.1042L9.19418 8.81043C9.74517 8.10467 10.0952 7.26313 10.2073 6.3748H12.8392C12.9569 6.82643 13.1989 7.236 13.5376 7.557C13.8764 7.87801 14.2984 8.09758 14.7558 8.19078C15.2131 8.28398 15.6873 8.24709 16.1247 8.08427C16.5621 7.92146 16.9451 7.63927 17.2302 7.26973C17.5152 6.90019 17.6909 6.45812 17.7374 5.99373C17.7838 5.52933 17.6991 5.06122 17.4928 4.64256C17.2866 4.2239 16.9671 3.87145 16.5706 3.62526C16.1741 3.37907 15.7165 3.24899 15.2498 3.2498ZM6.4998 15.7498C6.4998 15.997 6.42649 16.2387 6.28914 16.4443C6.15179 16.6498 5.95657 16.81 5.72816 16.9047C5.49975 16.9993 5.24842 17.024 5.00594 16.9758C4.76347 16.9276 4.54074 16.8085 4.36592 16.6337C4.19111 16.4589 4.07205 16.2361 4.02382 15.9937C3.97559 15.7512 4.00035 15.4999 4.09495 15.2715C4.18956 15.043 4.34978 14.8478 4.55534 14.7105C4.7609 14.5731 5.00258 14.4998 5.2498 14.4998C5.58122 14.5001 5.89897 14.6319 6.13332 14.8663C6.36767 15.1006 6.49947 15.4184 6.4998 15.7498ZM5.2498 9.49981C4.50812 9.49981 3.7831 9.27987 3.16642 8.86782C2.54973 8.45576 2.06908 7.87009 1.78526 7.18487C1.50143 6.49965 1.42716 5.74565 1.57186 5.01822C1.71655 4.29079 2.07371 3.6226 2.59815 3.09815C3.1226 2.57371 3.79079 2.21655 4.51822 2.07186C5.24564 1.92717 5.99964 2.00143 6.68487 2.28526C7.37009 2.56908 7.95576 3.04973 8.36782 3.66642C8.77987 4.2831 8.9998 5.00812 8.9998 5.7498C8.99865 6.74401 8.60319 7.69717 7.90018 8.40018C7.19717 9.10319 6.24401 9.49865 5.2498 9.49981ZM13.9998 13.2498C13.9998 13.497 13.9265 13.7387 13.7891 13.9443C13.6518 14.1498 13.4566 14.31 13.2282 14.4047C12.9998 14.4993 12.7484 14.524 12.5059 14.4758C12.2635 14.4276 12.0407 14.3085 11.8659 14.1337C11.6911 13.9589 11.5721 13.7361 11.5238 13.4937C11.4756 13.2512 11.5003 12.9999 11.595 12.7715C11.6896 12.543 11.8498 12.3478 12.0553 12.2105C12.2609 12.0731 12.5026 11.9998 12.7498 11.9998C13.0812 12.0001 13.399 12.1319 13.6333 12.3663C13.8677 12.6006 13.9995 12.9184 13.9998 13.2498ZM15.2498 6.9998C15.0026 6.9998 14.7609 6.92649 14.5553 6.78914C14.3498 6.65179 14.1896 6.45657 14.095 6.22816C14.0003 5.99975 13.9756 5.74842 14.0238 5.50594C14.0721 5.26347 14.1911 5.04074 14.3659 4.86592C14.5407 4.69111 14.7635 4.57205 15.0059 4.52382C15.2484 4.47559 15.4998 4.50035 15.7282 4.59496C15.9566 4.68956 16.1518 4.84978 16.2891 5.05534C16.4265 5.2609 16.4998 5.50258 16.4998 5.7498C16.4995 6.08122 16.3677 6.39897 16.1333 6.63332C15.899 6.86767 15.5812 6.99947 15.2498 6.9998Z" fill="white"/>
</svg>
